<?xml version="1.0" standalone="no"?>
<!DOCTYPE svg PUBLIC "-//W3C//DTD SVG 20010904//EN"
 "http://www.w3.org/TR/2001/REC-SVG-20010904/DTD/svg10.dtd">
<svg version="1.0" xmlns="http://www.w3.org/2000/svg"
 width="270.000000pt" height="269.000000pt" viewBox="0 0 270.000000 269.000000"
 preserveAspectRatio="xMidYMid meet">

<g transform="translate(0.000000,269.000000) scale(0.100000,-0.100000)"
fill="#000000" stroke="none">
<path d="M60 2284 c0 -3 52 -108 115 -232 63 -125 115 -233 115 -239 0 -9 -20
-13 -65 -13 l-65 0 0 -350 0 -350 251 -2 250 -3 204 -400 c112 -220 208 -401
213 -403 10 -3 34 50 174 382 51 121 98 221 105 223 6 2 15 -6 19 -19 17 -55
237 -564 249 -576 15 -16 51 50 265 478 73 146 141 277 152 293 l19 27 245 0
244 0 0 350 0 350 -65 0 c-39 0 -65 4 -65 10 0 6 52 114 115 240 63 125 115
231 115 234 0 4 -201 5 -447 4 l-446 -3 -13 -40 c-15 -48 -123 -402 -130 -428
-5 -16 -24 -17 -257 -15 l-252 3 -17 50 c-9 28 -40 127 -68 220 -29 94 -56
180 -61 193 l-9 22 -445 0 c-245 0 -445 -3 -445 -6z m2458 -831 l2 -322 -227
-3 c-126 -2 -650 -2 -1165 0 l-938 2 0 319 c0 175 3 321 7 324 3 4 527 6 1162
5 l1156 -3 3 -322z"/>
<path d="M1625 1666 c-99 -47 -148 -121 -148 -221 0 -97 59 -183 152 -223 39
-16 140 -22 184 -9 26 7 27 10 27 77 l0 70 -32 -20 c-72 -44 -171 -12 -196 64
-40 122 102 223 203 144 l25 -19 0 69 c0 70 0 70 -31 81 -54 19 -129 13 -184
-13z"/>
<path d="M330 1674 c0 -3 36 -66 80 -140 l79 -134 3 -88 3 -87 70 0 70 0 5 95
5 95 78 126 c42 70 77 130 77 133 0 4 -32 6 -71 4 l-71 -3 -40 -75 c-22 -41
-43 -79 -48 -84 -5 -5 -27 28 -52 78 l-42 86 -73 0 c-40 0 -73 -2 -73 -6z"/>
<path d="M840 1674 c0 -5 38 -150 85 -329 15 -55 31 -105 36 -111 5 -6 33 -12
64 -13 66 -2 66 -2 85 134 21 152 28 149 55 -20 9 -54 21 -103 28 -107 15 -10
98 -10 113 0 10 6 124 412 124 441 0 7 -24 11 -65 11 -59 0 -65 -2 -70 -22 -2
-13 -14 -72 -25 -132 -11 -60 -22 -111 -25 -114 -8 -8 -14 18 -32 143 l-18
120 -57 3 c-66 3 -60 15 -84 -146 -9 -62 -20 -115 -24 -117 -5 -3 -16 39 -25
92 -9 54 -21 115 -26 136 l-10 37 -64 0 c-36 0 -65 -2 -65 -6z"/>
<path d="M2085 1670 c-14 -23 -155 -418 -155 -435 0 -7 21 -12 54 -14 55 -2
86 14 86 44 0 18 23 25 78 25 68 0 87 -8 99 -41 11 -27 15 -29 65 -29 29 0 59
4 66 8 9 6 -6 59 -63 218 -42 115 -78 215 -80 222 -5 15 -141 17 -150 2z m103
-217 c11 -39 17 -74 14 -77 -12 -12 -83 -6 -88 8 -4 11 11 81 32 145 8 24 21
0 42 -76z"/>
</g>
</svg>
